# xmcd CD database file
#
# Track frame offsets:
#	150
#	19370
#	49520
#	81977
#	114117
#	137082
#	167342
#	185997
#	212830
#	236927
#
# Disc length: 3625 seconds
#
# Revision: 1
# Processed by: cddbd v1.5.1PL0 Copyright (c) Steve Scherf et al.
# Submitted via: CDex 1.51
#
DISCID=890e270a
DTITLE=Omnibus - Jazz Trumpet on Bluenote
DYEAR=1900
DGENRE=Jazz
TTITLE0=Dear old Stockholm
TTITLE1=Fuego
TTITLE2=Open sesame
TTITLE3=I remember
TTITLE4=Afrodesia
TTITLE5=April in Paris
TTITLE6=Hymn of the orient
TTITLE7=I'll close my eyes
TTITLE8=Stardust
TTITLE9=Fungii mama
EXTD=
EXTT0=
EXTT1=
EXTT2=
EXTT3=
EXTT4=
EXTT5=
EXTT6=
EXTT7=
EXTT8=
EXTT9=
PLAYORDER=
